<svg width="121" height="27" viewBox="0 0 121 27" fill="none" xmlns="http://www.w3.org/2000/svg">
<path d="M78.6163 9.24566C78.6163 14.6314 78.6882 17.3057 78.8139 17.7328C79.3167 19.2557 80.538 20.2399 82.2261 20.4442L83.1061 20.5557V19.2557V17.9742L82.5135 17.7514C82.1723 17.6214 81.8131 17.3242 81.7053 17.0457C81.5437 16.7299 81.4898 14.3342 81.4898 8.98566V1.37137H80.0531H78.6163V9.24566Z" fill="white"/>
<path d="M38.6572 2.89421C36.8972 8.26135 33.5567 19.5714 33.6286 19.9056C33.7184 20.2771 33.8261 20.3142 35.0653 20.3142H36.3943L36.969 18.3642L37.5437 16.4142H41.0816H44.6196L45.1943 18.3642L45.769 20.3142H47.098C48.3551 20.3142 48.4449 20.2771 48.5347 19.8871C48.6065 19.5899 47.7445 16.5442 46.0743 11.1028L43.4882 2.76421L41.1176 2.70849C39.3037 2.67135 38.729 2.70849 38.6572 2.89421ZM42.5543 9.46849C43.2188 11.6042 43.7576 13.4056 43.7576 13.4799C43.7755 13.5728 42.5543 13.6285 41.0637 13.6285C38.8008 13.6285 38.3698 13.5914 38.4416 13.3685C38.4955 13.2199 39.0343 11.4928 39.6449 9.50564C40.2376 7.53706 40.7763 5.80992 40.8123 5.67992C41.0457 5.01135 41.4408 5.88421 42.5543 9.46849Z" fill="white"/>
<path d="M53.24 7.20287C51.8392 7.72287 51.1568 8.91144 51.1388 10.8057C51.1388 13.3872 52.36 14.4086 55.9698 14.8357C56.8139 14.9286 57.227 15.0772 57.5502 15.4114C58.071 15.95 58.089 16.8414 57.6041 17.3429C57.2808 17.6772 57.0114 17.7143 54.1919 17.7143H51.1388V18.5314C51.1388 19.2372 51.2106 19.4043 51.7674 19.85L52.4139 20.3514L55.4131 20.2772C58.8433 20.2029 59.4719 20.0172 60.2441 18.81C60.7829 17.9557 60.9984 16.0986 60.6751 15.0586C60.1543 13.4614 59.3821 12.9786 56.6523 12.4957C54.3894 12.1057 54.0123 11.8643 54.0123 10.8243C54.0123 9.67287 54.3535 9.54287 57.5502 9.54287H60.298V8.72573C60.298 8.00144 60.2261 7.87144 59.6155 7.42573C58.951 6.96144 58.8433 6.94287 56.4188 6.94287C54.7845 6.96144 53.689 7.0543 53.24 7.20287Z" fill="white"/>
<path d="M63.4229 7.2214C63.3331 7.44426 64.7878 12.2543 67.7151 21.3914L68.0922 22.5428L67.5355 24.3257C67.2123 25.31 67.0147 26.22 67.0686 26.3685C67.1404 26.5543 67.4996 26.6285 68.4874 26.6285H69.7984L70.3551 24.8271C70.6604 23.8243 72.0074 19.5157 73.3543 15.2443C74.6833 10.9728 75.7249 7.36997 75.671 7.20283C75.5812 6.97997 75.2939 6.94283 74.2702 6.97997L72.9592 7.03568L71.3429 12.3657C70.4629 15.3185 69.6367 17.7143 69.5469 17.7143C69.4392 17.7143 68.631 15.3185 67.751 12.3657L66.1347 7.03568L64.8237 6.97997C63.782 6.94283 63.5127 6.97997 63.4229 7.2214Z" fill="white"/>
<path d="M86.5184 12.2728C86.5184 17.0828 86.5543 17.6956 86.8596 18.3828C87.2188 19.1999 87.8653 19.7571 88.8351 20.0914C89.2302 20.2399 90.9004 20.3142 93.4506 20.3142H97.4735V13.6285V6.94278H96.0367H94.6V12.3285V17.7142H92.391C89.1224 17.7142 89.3918 18.2156 89.3918 12.0314V6.94278H87.9551H86.5184V12.2728Z" fill="white"/>
<path d="M101.784 13.6285V20.3142H103.31H104.837V14.9285V9.54278H107.261H109.686V14.9285V20.3142H111.212H112.739V14.9285V9.54278H114.876C116.582 9.54278 117.085 9.59849 117.3 9.83992C117.552 10.0814 117.588 10.8428 117.588 15.2256V20.3142H119.132H120.677L120.605 14.9656C120.533 9.09707 120.479 8.76278 119.402 7.81564C119.096 7.55564 118.54 7.23992 118.162 7.12849C117.749 7.01707 114.499 6.94278 109.65 6.94278H101.784V13.6285Z" fill="white"/>
<path d="M7.56911 0.0195065C7.55139 0.0293369 7.5258 0.0666962 7.51201 0.102089C7.49626 0.137482 7.46673 0.210232 7.44113 0.265287C7.41751 0.318377 7.33875 0.505171 7.2659 0.678202C7.04539 1.20516 6.68508 2.05065 6.65555 2.11357C6.64177 2.14503 6.59648 2.25121 6.55711 2.34952C6.51576 2.44587 6.4626 2.57367 6.437 2.63069C6.41141 2.68771 6.38975 2.73884 6.38975 2.74277C6.38975 2.7467 6.36809 2.79782 6.3425 2.85485C6.3169 2.91187 6.20665 3.16748 6.09836 3.42113C5.23402 5.45227 4.096 8.0379 3.45612 9.42804C3.42068 9.50276 3.2927 9.7859 3.17063 10.0572C3.04856 10.3266 2.92058 10.6098 2.88514 10.6864C2.8497 10.7612 2.76504 10.948 2.6981 11.0994C2.62919 11.2508 2.54059 11.4454 2.50121 11.5319C2.45987 11.6184 2.37127 11.8131 2.30432 11.9645C2.23541 12.1159 2.03262 12.5623 1.85148 12.9575C1.41439 13.9131 1.44195 13.8521 1.29035 14.1864C1.2175 14.3476 1.1289 14.5423 1.09346 14.619C1.05802 14.6937 1.01077 14.7998 0.985173 14.8549C0.961547 14.908 0.916262 15.0063 0.886729 15.0712C0.112959 16.7504 -0.0110806 17.0355 0.000732685 17.0984C0.0145149 17.1771 0.0755502 17.2242 0.162181 17.2242C0.231092 17.2242 0.662277 17.0866 1.46755 16.8054C1.73335 16.713 2.15469 16.5675 2.40277 16.481C3.01312 16.2686 4.98594 15.5824 5.47422 15.4114C5.6908 15.3366 6.08457 15.199 6.35037 15.1066C6.88985 14.9218 7.19502 14.8136 7.47264 14.7173C7.6774 14.6445 8.66578 14.3004 9.30369 14.0802C9.56162 13.9898 9.7211 13.9249 9.74866 13.8954C9.79001 13.8541 9.87073 13.6378 10.17 12.7805C10.2468 12.5583 10.3315 12.3204 10.357 12.2496C10.426 12.0628 10.5165 11.8052 10.6228 11.4926C10.676 11.3412 10.7508 11.1249 10.7902 11.0109C11.1131 10.0946 11.686 8.40362 11.8337 7.92385C11.8593 7.84324 11.9381 7.58959 12.0109 7.36347C12.1468 6.93089 12.3417 6.30562 12.385 6.15422C12.3988 6.10507 12.448 5.9458 12.4933 5.8003C12.5386 5.65479 12.5878 5.49356 12.6035 5.44047C12.6547 5.27137 12.6843 5.16716 12.9166 4.40426C13.0406 3.98741 13.1627 3.59023 13.1824 3.52141C13.2336 3.35624 13.2316 3.33461 13.1686 3.26579C13.0721 3.16355 11.5246 2.15289 10.8197 1.73015C10.4456 1.50599 9.5498 1.0046 9.11665 0.776514C8.99852 0.713594 8.8922 0.656572 8.88039 0.648708C8.81935 0.60545 7.64787 -0.000156403 7.62621 -0.000156403C7.61243 -0.000156403 7.58683 0.00967407 7.56911 0.0195065Z" fill="white"/>
<path d="M24.4149 3.51952C23.3399 3.62373 23.2139 3.63553 22.83 3.67682C21.879 3.77514 21.0619 3.89311 20.2212 4.05238C19.3864 4.20968 18.778 4.32962 18.7229 4.34731C18.6047 4.38467 18.5929 4.41417 18.5555 4.78382C18.3744 6.51806 18.1578 8.73403 18.1046 9.42222C18.0889 9.62278 18.0475 10.2048 17.9964 10.9323C17.9727 11.2685 17.9078 12.3244 17.8881 12.6724C17.8782 12.8769 17.8644 13.0991 17.8585 13.164C17.8546 13.2289 17.8448 13.3921 17.8388 13.5278C17.8329 13.6634 17.8231 13.8168 17.8192 13.8719C17.8132 13.9249 17.8054 14.0626 17.7995 14.1766C17.7798 14.5659 17.7502 15.1499 17.7404 15.3072C17.7325 15.435 17.7365 15.4744 17.764 15.5176C17.7837 15.5471 17.9452 15.7005 18.1243 15.8597C18.3035 16.019 18.6047 16.2864 18.7938 16.4555C19.7782 17.3344 20.8729 18.3136 21.373 18.758C21.6821 19.0333 22.0936 19.399 22.2865 19.574C23.3576 20.5296 25.039 22.024 25.1178 22.0888C25.3127 22.2481 25.3265 22.2579 25.3934 22.2579C25.4407 22.2579 25.4761 22.2422 25.5096 22.2068C25.5529 22.1596 25.5569 22.1439 25.5529 21.9571C25.547 21.6799 25.5096 20.5847 25.4978 20.3212C25.4939 20.2012 25.484 19.9496 25.4781 19.7608C25.4722 19.572 25.4584 19.165 25.4486 18.8563C25.4387 18.5476 25.421 18.0266 25.4092 17.6962C25.3875 17.0139 25.3738 16.603 25.36 16.2215C25.3541 16.076 25.3403 15.6376 25.3304 15.2482C25.3206 14.8589 25.3068 14.4519 25.3009 14.3438C25.297 14.2356 25.2871 13.9485 25.2812 13.7047C25.2753 13.4609 25.2655 13.1738 25.2615 13.0657C25.2576 12.9575 25.2477 12.6174 25.2418 12.3087C25.2359 12 25.2261 11.6913 25.2221 11.6205C25.2182 11.5497 25.2084 11.1348 25.2025 10.6964C25.1966 10.2579 25.1887 9.78401 25.1828 9.64441C25.1769 9.50284 25.169 8.72027 25.1611 7.90427C25.1552 7.08827 25.1473 6.31357 25.1434 6.1838C25.1395 6.05403 25.1355 5.40909 25.1355 4.75236L25.1335 3.55688L25.0843 3.50969C25.0587 3.48216 25.0253 3.4625 25.0115 3.4625C24.9977 3.46447 24.7299 3.49003 24.4149 3.51952Z" fill="white"/>
</svg>
