<svg width="28" height="20" viewBox="0 0 28 20" fill="none" xmlns="http://www.w3.org/2000/svg">
<path d="M24.1196 2.2179C21.6967 0.333766 17.8638 0.0143818 17.6997 0.00289273C17.4453 -0.0177867 17.2028 0.120077 17.0982 0.347552C17.0887 0.361338 17.0054 0.547454 16.9127 0.836967C18.5153 1.09891 20.484 1.62509 22.2649 2.69353C22.5503 2.86356 22.6382 3.2266 22.4623 3.50233C22.3458 3.68385 22.1484 3.78265 21.944 3.78265C21.8346 3.78265 21.7228 3.75278 21.623 3.69304C18.5605 1.85716 14.7371 1.76525 14 1.76525C13.2629 1.76525 9.43716 1.85716 6.37704 3.69304C6.09171 3.86537 5.71603 3.78035 5.54008 3.50463C5.36175 3.2266 5.44973 2.86586 5.73505 2.69353C7.51596 1.62739 9.48471 1.09891 11.0873 0.839265C10.9946 0.547454 10.9113 0.363636 10.9042 0.347552C10.7972 0.120077 10.5571 -0.0223818 10.3003 0.00289273C10.1362 0.0143818 6.30333 0.333765 3.84715 2.24318C2.56556 3.38974 0 10.0899 0 15.8825C0 15.9859 0.0285326 16.0847 0.0808427 16.1743C1.84986 19.1797 6.67901 19.9655 7.77989 20C7.78465 20 7.79178 20 7.79891 20C7.99389 20 8.17697 19.9104 8.2911 19.7587L9.40387 18.279C6.40081 17.5299 4.86719 16.257 4.77921 16.1812C4.52717 15.9675 4.5034 15.5953 4.7269 15.3517C4.94803 15.1081 5.33322 15.0852 5.58526 15.2989C5.62092 15.331 8.44565 17.6471 14 17.6471C19.5639 17.6471 22.3886 15.3218 22.4171 15.2989C22.6692 15.0875 23.052 15.1081 23.2755 15.354C23.4966 15.5976 23.4728 15.9675 23.2208 16.1812C23.1328 16.257 21.5992 17.5299 18.5961 18.279L19.7089 19.7587C19.823 19.9104 20.0061 20 20.2011 20C20.2082 20 20.2154 20 20.2201 20C21.321 19.9655 26.1501 19.1797 27.9192 16.1743C27.9715 16.0847 28 15.9859 28 15.8825C28 10.0899 25.4344 3.38974 24.1196 2.2179ZM10.0435 13.5296C8.86651 13.5296 7.91304 12.4772 7.91304 11.1767C7.91304 9.87622 8.86651 8.82386 10.0435 8.82386C11.2204 8.82386 12.1739 9.87622 12.1739 11.1767C12.1739 12.4772 11.2204 13.5296 10.0435 13.5296ZM17.9565 13.5296C16.7796 13.5296 15.8261 12.4772 15.8261 11.1767C15.8261 9.87622 16.7796 8.82386 17.9565 8.82386C19.1335 8.82386 20.087 9.87622 20.087 11.1767C20.087 12.4772 19.1335 13.5296 17.9565 13.5296Z" fill="url(#paint0_linear_321_122)"/>
<defs>
<linearGradient id="paint0_linear_321_122" x1="-11.5767" y1="42.7259" x2="23.059" y2="-8.04514" gradientUnits="userSpaceOnUse">
<stop offset="0.246495" stop-color="#CC00FF"/>
<stop offset="1" stop-color="#50BFFF"/>
</linearGradient>
</defs>
</svg>
