<svg width="19" height="20" viewBox="0 0 19 20" fill="none" xmlns="http://www.w3.org/2000/svg">
<path d="M15.8333 0H3.16667C1.41787 0 0 1.4925 0 3.33333V16.6667C0 18.5075 1.41787 20 3.16667 20H15.8333C17.5821 20 19 18.5075 19 16.6667V3.33333C19 1.4925 17.5821 0 15.8333 0ZM6.33333 16.25H4.35417V7.91667H6.33333V16.25ZM6.34481 6.25375C6.08871 6.52875 5.75463 6.66667 5.34375 6.66667C4.93763 6.66667 4.60552 6.52458 4.34665 6.24042C4.08777 5.95625 3.95833 5.6075 3.95833 5.195C3.95833 4.77 4.08777 4.42333 4.34665 4.15417C4.60552 3.88458 4.93763 3.75 5.34375 3.75C5.75463 3.75 6.08871 3.88458 6.34481 4.15375C6.60092 4.42292 6.72917 4.77 6.72917 5.195C6.72917 5.62583 6.60092 5.97875 6.34481 6.25375ZM15.4375 16.25H13.4583V11.6196C13.4583 10.3283 12.7514 9.58333 11.875 9.58333C11.4526 9.58333 10.9749 9.85333 10.7014 10.1954C10.4278 10.5375 10.2917 10.9713 10.2917 11.4975V16.25H8.3125V7.91667H10.2917V9.235H10.3225C10.9052 8.22042 11.7527 7.71667 12.8662 7.71333C14.4479 7.70833 15.4375 8.95833 15.4375 11.1475V16.25Z" fill="#BABABA"/>
</svg>
