<svg width="28" height="20" viewBox="0 0 28 20" fill="none" xmlns="http://www.w3.org/2000/svg">
<path fill-rule="evenodd" clip-rule="evenodd" d="M27.6889 2.12793C27.8393 2.00765 27.9113 1.80999 27.8443 1.62949C27.4908 0.677966 26.5746 0 25.5 0H2.5C1.63278 0 0.868686 0.441569 0.420301 1.11214C0.294727 1.29993 0.35268 1.54651 0.525484 1.69203L13.7105 12.7952C13.893 12.9488 14.1586 12.9522 14.3449 12.8032L27.6889 2.12793ZM0.822068 5.86381C0.496884 5.58997 0 5.82114 0 6.24626V17.5C0 18.8807 1.11929 20 2.5 20H25.5C26.8807 20 28 18.8807 28 17.5V6.76125C28 6.342 27.515 6.10891 27.1877 6.37081L14.937 16.1713L14.2961 16.6841C14.1098 16.8331 13.8441 16.8298 13.6617 16.6761L13.0338 16.1474L0.822068 5.86381Z" fill="#BABABA"/>
</svg>
