<svg width="24" height="20" viewBox="0 0 24 20" fill="none" xmlns="http://www.w3.org/2000/svg">
<path d="M22.4527 0.985524C22.4527 0.985524 21.7908 1.29578 21.3311 1.46815C20.8738 1.64052 20.2579 1.81518 20.2579 1.81518C20.2579 1.81518 17.8309 -1.23686 14.3078 0.574142C10.7823 2.38514 11.9222 6.46679 11.9222 6.46679C11.9222 6.46679 8.91383 6.57251 5.35388 4.72704C1.79393 2.88156 0.929794 1.21305 0.929794 1.21305C0.929794 1.21305 0.37822 2.20818 0.619533 4.05366C0.860847 5.89913 2.56153 8.27549 2.56153 8.27549L0.516113 7.42745C0.516113 7.42745 0.619533 8.59954 1.41472 9.80611C2.2099 11.0127 5.00914 12.5387 5.00914 12.5387L2.3478 12.5732C2.3478 12.5732 2.58911 13.1408 3.55666 14.0992C4.52422 15.0576 7.22004 15.9102 7.22004 15.9102C7.22004 15.9102 5.324 17.273 4.00482 17.7924C2.68564 18.3118 0.619533 18.4337 0.619533 18.4337C0.619533 18.4337 3.69915 20.4032 8.4312 19.9252C13.1609 19.4449 16.4175 17.1742 18.9364 13.3913C21.4575 9.60846 21.2162 4.69256 21.2162 4.69256C21.2162 4.69256 21.492 4.36621 22.1608 3.7365C22.8319 3.10449 23.0387 2.79653 23.0387 2.79653L21.3656 2.97809L22.4527 0.985524Z" fill="url(#paint0_linear_397_2)"/>
<defs>
<linearGradient id="paint0_linear_397_2" x1="-8.79593" y1="42.7259" x2="27.9045" y2="-0.547766" gradientUnits="userSpaceOnUse">
<stop offset="0.246495" stop-color="#CC00FF"/>
<stop offset="1" stop-color="#50BFFF"/>
</linearGradient>
</defs>
</svg>
